<?xml version="1.0" encoding="UTF-8" standalone="no"?>
<svg
   xmlns:dc="http://purl.org/dc/elements/1.1/"
   xmlns:cc="http://creativecommons.org/ns#"
   xmlns:rdf="http://www.w3.org/1999/02/22-rdf-syntax-ns#"
   xmlns:svg="http://www.w3.org/2000/svg"
   xmlns="http://www.w3.org/2000/svg"
   xmlns:sodipodi="http://sodipodi.sourceforge.net/DTD/sodipodi-0.dtd"
   xmlns:inkscape="http://www.inkscape.org/namespaces/inkscape"
   viewBox="-144 -144 288 288"
   version="1.1"
   id="svg8"
   sodipodi:docname="ne-smaukyklai.svg"
   inkscape:version="0.92.5 (2060ec1f9f, 2020-04-08)">
  <defs
     id="defs12" />
  <sodipodi:namedview
     pagecolor="#ffffff"
     bordercolor="#666666"
     borderopacity="1"
     objecttolerance="10"
     gridtolerance="10"
     guidetolerance="10"
     inkscape:pageopacity="0"
     inkscape:pageshadow="2"
     inkscape:window-width="1604"
     inkscape:window-height="951"
     id="namedview10"
     showgrid="false"
     inkscape:zoom="2.7027972"
     inkscape:cx="144"
     inkscape:cy="144"
     inkscape:window-x="72"
     inkscape:window-y="34"
     inkscape:window-maximized="0"
     inkscape:current-layer="svg8" />
  <title
     id="title2">“No &lt;blank&gt;” overlay</title>
  <path
     d="m-143 0a143 143 0 1 1 286 0 143 143 0 0 1 -286 0m158 112a113 113 0 0 0 0 -224zm-30-224a113 113 0 0 0 0 224z"
     transform="rotate(45)"
     fill="#f00"
     id="path4" />
  <metadata
     id="metadata6">
    <rdf:RDF>
      <cc:Work>
        <dc:format>image/svg+xml</dc:format>
        <dc:type
           rdf:resource="http://purl.org/dc/dcmitype/StillImage" />
        <cc:license
           rdf:resource="http://creativecommons.org/licenses/publicdomain/" />
        <dc:publisher>
          <cc:Agent
             rdf:about="http://openclipart.org/">
            <dc:title>Openclipart</dc:title>
          </cc:Agent>
        </dc:publisher>
        <dc:title>No-sign</dc:title>
        <dc:date>2009-12-18T17:48:31</dc:date>
        <dc:description>Red circle with diagonal stroke. Intended as an overlay over other graphics to create “No ‹blank›!” signs.</dc:description>
        <dc:source>https://openclipart.org/detail/28689/no-sign-by-skotan</dc:source>
        <dc:creator>
          <cc:Agent>
            <dc:title>skotan</dc:title>
          </cc:Agent>
        </dc:creator>
        <dc:subject>
          <rdf:Bag>
            <rdf:li>sign</rdf:li>
            <rdf:li>unchecked</rdf:li>
          </rdf:Bag>
        </dc:subject>
      </cc:Work>
      <cc:License
         rdf:about="http://creativecommons.org/licenses/publicdomain/">
        <cc:permits
           rdf:resource="http://creativecommons.org/ns#Reproduction" />
        <cc:permits
           rdf:resource="http://creativecommons.org/ns#Distribution" />
        <cc:permits
           rdf:resource="http://creativecommons.org/ns#DerivativeWorks" />
      </cc:License>
    </rdf:RDF>
  </metadata>
  <g
     aria-label="SMAUKYKLA"
     transform="translate(-114.03105,-101.82147)"
     style="font-style:normal;font-variant:normal;font-weight:normal;font-stretch:normal;font-size:24px;line-height:1.25;font-family:sans-serif;-inkscape-font-specification:'sans-serif, Normal';font-variant-ligatures:normal;font-variant-caps:normal;font-variant-numeric:normal;font-feature-settings:normal;text-align:start;letter-spacing:0px;word-spacing:0px;writing-mode:lr-tb;text-anchor:start;fill:#000000;fill-opacity:1;stroke:none"
     id="flowRoot22">
    <path
       d="m 4.951823,105.80819 4.8750001,-0.47396 q 0.4401039,2.45442 1.7773439,3.60547 1.354167,1.15104 3.639323,1.15104 2.420573,0 3.639323,-1.01563 1.235677,-1.03255 1.235677,-2.40364 0,-0.88021 -0.524739,-1.48959 -0.507813,-0.6263 -1.794271,-1.08333 -0.880209,-0.30469 -4.011719,-1.08333 -4.0286462,-0.9987 -5.6536463,-2.45443 -2.2851563,-2.048178 -2.2851563,-4.99349 0,-1.895834 1.0664063,-3.537761 1.0833334,-1.658854 3.0976563,-2.522135 2.03125,-0.863282 4.891927,-0.863282 4.671875,0 7.02474,2.048177 2.369792,2.048178 2.488282,5.467449 L 19.407553,96.3798 q -0.321615,-1.912761 -1.388021,-2.742188 -1.049479,-0.846354 -3.165365,-0.846354 -2.183594,0 -3.419271,0.897135 -0.795573,0.575521 -0.795573,1.540365 0,0.880208 0.744792,1.50651 0.947917,0.795573 4.604167,1.658855 3.65625,0.863281 5.399739,1.794267 1.760417,0.91407 2.742188,2.52214 0.998698,1.59114 0.998698,3.94401 0,2.13281 -1.184896,3.99479 -1.184896,1.86198 -3.351562,2.77604 -2.166667,0.89714 -5.39974,0.89714 -4.70573,0 -7.2278651,-2.16667 -2.5221355,-2.18359 -3.0130209,-6.34765 z"
       style="font-style:normal;font-variant:normal;font-weight:bold;font-stretch:normal;font-size:34.66666794px;font-family:Arial;-inkscape-font-specification:'Arial Bold'"
       id="path30" />
    <path
       d="M 29.276042,113.8824 V 89.067299 h 7.498699 l 4.502604,16.927081 4.451823,-16.927081 h 7.515625 V 113.8824 H 48.589845 V 94.34855 L 43.664064,113.8824 H 38.839845 L 33.93099,94.34855 v 19.53385 z"
       style="font-style:normal;font-variant:normal;font-weight:bold;font-stretch:normal;font-size:34.66666794px;font-family:Arial;-inkscape-font-specification:'Arial Bold'"
       id="path32" />
    <path
       d="m 80.598959,113.8824 h -5.450521 l -2.166667,-5.63671 H 63.0625 l -2.048177,5.63671 h -5.315104 l 9.665365,-24.815101 h 5.298177 z m -9.225261,-9.8177 -3.41927,-9.208338 -3.351563,9.208338 z"
       style="font-style:normal;font-variant:normal;font-weight:bold;font-stretch:normal;font-size:34.66666794px;font-family:Arial;-inkscape-font-specification:'Arial Bold'"
       id="path34" />
    <path
       d="m 83.222656,89.067299 h 5.010417 V 102.5074 q 0,3.19922 0.186198,4.14714 0.321615,1.52344 1.523438,2.45443 1.21875,0.91406 3.317708,0.91406 2.132813,0 3.216146,-0.86328 1.083333,-0.88021 1.303386,-2.14974 0.220052,-1.26953 0.220052,-4.21485 V 89.067299 h 5.010419 v 13.033851 q 0,4.46875 -0.40625,6.31381 -0.40625,1.84505 -1.50651,3.11458 -1.08334,1.26953 -2.911461,2.03125 -1.828126,0.74479 -4.773438,0.74479 -3.554688,0 -5.39974,-0.8125 -1.828125,-0.82943 -2.894531,-2.13281 -1.066407,-1.32031 -1.404948,-2.75912 -0.490886,-2.13281 -0.490886,-6.29687 z"
       style="font-style:normal;font-variant:normal;font-weight:bold;font-stretch:normal;font-size:34.66666794px;font-family:Arial;-inkscape-font-specification:'Arial Bold'"
       id="path36" />
    <path
       d="M 108.35938,113.8824 V 89.067299 h 5.01041 v 11.019531 l 10.1224,-11.019531 h 6.73698 l -9.34375,9.665365 9.85156,15.149736 h -6.48307 l -6.82162,-11.64583 -4.0625,4.14714 v 7.49869 z"
       style="font-style:normal;font-variant:normal;font-weight:bold;font-stretch:normal;font-size:34.66666794px;font-family:Arial;-inkscape-font-specification:'Arial Bold'"
       id="path38" />
    <path
       d="m 139.84375,113.8824 v -10.44401 l -9.08984,-14.371091 h 5.87369 l 5.83985,9.817709 5.72135,-9.817709 h 5.77214 l -9.1237,14.404951 v 10.41015 z"
       style="font-style:normal;font-variant:normal;font-weight:bold;font-stretch:normal;font-size:34.66666794px;font-family:Arial;-inkscape-font-specification:'Arial Bold'"
       id="path40" />
    <path
       d="M 156.51694,113.8824 V 89.067299 h 5.01041 v 11.019531 l 10.1224,-11.019531 h 6.73698 l -9.34375,9.665365 9.85156,15.149736 h -6.48307 l -6.82162,-11.64583 -4.0625,4.14714 v 7.49869 z"
       style="font-style:normal;font-variant:normal;font-weight:bold;font-stretch:normal;font-size:34.66666794px;font-family:Arial;-inkscape-font-specification:'Arial Bold'"
       id="path42" />
    <path
       d="M 181.6198,113.8824 V 89.270424 h 5.01042 v 20.430986 h 12.45833 v 4.18099 z"
       style="font-style:normal;font-variant:normal;font-weight:bold;font-stretch:normal;font-size:34.66666794px;font-family:Arial;-inkscape-font-specification:'Arial Bold'"
       id="path44" />
    <path
       d="m 225.03777,113.8824 h -5.45052 l -2.16667,-5.63671 h -9.91927 l -2.04817,5.63671 h -5.31511 l 9.66537,-24.815101 h 5.29817 z m -9.22526,-9.8177 -3.41927,-9.208338 -3.35156,9.208338 z"
       style="font-style:normal;font-variant:normal;font-weight:bold;font-stretch:normal;font-size:34.66666794px;font-family:Arial;-inkscape-font-specification:'Arial Bold'"
       id="path46" />
  </g>
</svg>
